<svg width="32" height="24" viewBox="0 0 32 24" fill="current" xmlns="http://www.w3.org/2000/svg">
<path d="M22.9772 13.7666C24.9276 15.0906 26.2943 16.8844 26.2943 19.2762V23.5471H31.9889V19.2762C31.9889 16.1726 26.9065 14.3361 22.9772 13.7666Z" />
<path d="M20.5998 12.1578C23.746 12.1578 26.2944 9.60946 26.2944 6.46318C26.2944 3.3169 23.746 0.768555 20.5998 0.768555C19.9306 0.768555 19.3042 0.91092 18.7063 1.11023C19.8879 2.5766 20.5998 4.44159 20.5998 6.46318C20.5998 8.48477 19.8879 10.3498 18.7063 11.8161C19.3042 12.0154 19.9306 12.1578 20.5998 12.1578Z" />
<path d="M12.0572 12.1578C15.2035 12.1578 17.7518 9.60946 17.7518 6.46318C17.7518 3.3169 15.2035 0.768555 12.0572 0.768555C8.91089 0.768555 6.36255 3.3169 6.36255 6.46318C6.36255 9.60946 8.91089 12.1578 12.0572 12.1578ZM12.0572 3.61587C13.6232 3.61587 14.9045 4.89716 14.9045 6.46318C14.9045 8.0292 13.6232 9.31049 12.0572 9.31049C10.4912 9.31049 9.20986 8.0292 9.20986 6.46318C9.20986 4.89716 10.4912 3.61587 12.0572 3.61587Z" />
<path d="M12.0575 13.5823C8.2563 13.5823 0.668213 15.49 0.668213 19.2769V23.5479H23.4467V19.2769C23.4467 15.49 15.8586 13.5823 12.0575 13.5823ZM20.5994 20.7006H3.51553V19.2911C3.80026 18.2661 8.21359 16.4296 12.0575 16.4296C15.9013 16.4296 20.3147 18.2661 20.5994 19.2769V20.7006Z" />
</svg>
