<svg width="32" height="24" viewBox="0 0 32 24" fill="current" xmlns="http://www.w3.org/2000/svg">
<path d="M26.2942 14.9719V3.58266C26.2942 2.01664 25.0129 0.735352 23.4468 0.735352H3.51565C1.94963 0.735352 0.668335 2.01664 0.668335 3.58266V14.9719C0.668335 16.5379 1.94963 17.8192 3.51565 17.8192H23.4468C25.0129 17.8192 26.2942 16.5379 26.2942 14.9719ZM23.4468 14.9719H3.51565V3.58266H23.4468V14.9719ZM13.4812 5.00632C11.118 5.00632 9.21028 6.91402 9.21028 9.27729C9.21028 11.6406 11.118 13.5483 13.4812 13.5483C15.8445 13.5483 17.7522 11.6406 17.7522 9.27729C17.7522 6.91402 15.8445 5.00632 13.4812 5.00632ZM31.9888 5.00632V20.6665C31.9888 22.2326 30.7075 23.5139 29.1415 23.5139H4.93931C4.93931 22.0902 4.93931 22.2326 4.93931 20.6665H29.1415V5.00632C30.7075 5.00632 30.5651 5.00632 31.9888 5.00632Z"/>
</svg>
