<svg width="27" height="30" viewBox="0 0 27 30" fill="current" xmlns="http://www.w3.org/2000/svg">
<path d="M23.2941 3.79556H21.8705V0.948242H19.0232V3.79556H7.63391V0.948242H4.7866V3.79556H3.36294C1.79692 3.79556 0.515625 5.07685 0.515625 6.64287V26.5741C0.515625 28.1401 1.79692 29.4214 3.36294 29.4214H23.2941C24.8602 29.4214 26.1414 28.1401 26.1414 26.5741V6.64287C26.1414 5.07685 24.8602 3.79556 23.2941 3.79556ZM23.2941 26.5741H3.36294V12.3375H23.2941V26.5741ZM3.36294 9.49018V6.64287H23.2941V9.49018H3.36294ZM11.2785 24.3816L19.7208 15.9393L18.2117 14.4303L11.2785 21.3635L8.27455 18.3596L6.76548 19.8686L11.2785 24.3816Z"/>
</svg>
